# xmcd CD database file
#
# Track frame offsets:
#	150
#	13907
#	26949
#	51448
#	67876
#	94829
#	96721
#	110273
#	124243
#	138060
#	166228
#
# Disc length: 2472 seconds
#
# Revision: 0
# Processed by: cddbd v1.4PL0 Copyright (c) Steve Scherf et al.
# Submitted via: CDex 1.40Release
#
DISCID=9909a60b
DTITLE=Lady Bianca - All By Myself
DYEAR=2003
DGENRE=Blues
TTITLE0=I Got The Blues
TTITLE1=Man From New Orleans
TTITLE2=Choosin' Time
TTITLE3=Outside Man
TTITLE4=All The Blues Clubs Are Closed
TTITLE5=Musical Interlude
TTITLE6=Teach Me How To Boogie Like You
TTITLE7=Them Damned Kids
TTITLE8=Super Duper Daddy-O
TTITLE9=Made Up My Mind
TTITLE10=All By Myself
EXTD=YEAR: 2003 ID3G: 0
EXTT0=
EXTT1=
EXTT2=
EXTT3=
EXTT4=
EXTT5=
EXTT6=
EXTT7=
EXTT8=
EXTT9=
EXTT10=
PLAYORDER=
